<svg width="350" height="100" viewBox="0 0 350 100" fill="none" xmlns="http://www.w3.org/2000/svg">
<circle cx="59.4778" cy="50.0416" r="22.9169" fill="url(#paint0_linear_309_73)"/>
<path d="M27.0032 44.7337C30.5561 41.4938 41.8271 28.9648 59.2117 41.7876C75.828 54.0437 86.6125 40.4368 92.0047 31.9272" stroke="#2E2E2E" stroke-width="7.46133"/>
<path d="M27.0875 62.8482C30.6404 59.6083 41.9114 47.0793 59.296 59.9021C75.9123 72.1582 86.6968 58.5512 92.089 50.0416" stroke="#2E2E2E" stroke-width="7.46133"/>
<path d="M117.913 49.2729H130.766V54.2457H117.913V49.2729ZM118.372 64H112.175V37.2234H132.41V42.1962H118.372V64ZM144.382 64.306C142.674 64.306 141.144 63.9745 139.792 63.3115C138.466 62.6484 137.433 61.6411 136.694 60.2895C135.954 58.9124 135.584 57.1656 135.584 55.049V43.4203H141.552V54.1692C141.552 55.8778 141.909 57.1401 142.623 57.9561C143.362 58.7467 144.395 59.142 145.721 59.142C146.639 59.142 147.455 58.9507 148.169 58.5682C148.884 58.1601 149.445 57.5481 149.853 56.7321C150.261 55.8905 150.465 54.8449 150.465 53.5954V43.4203H156.432V64H150.771V58.3387L151.803 59.9835C151.115 61.4116 150.095 62.4954 148.743 63.235C147.417 63.949 145.964 64.306 144.382 64.306ZM174.469 43.1142C176.101 43.1142 177.555 43.4458 178.83 44.1088C180.13 44.7463 181.15 45.7409 181.89 47.0925C182.629 48.4186 182.999 50.1272 182.999 52.2183V64H177.032V53.1363C177.032 51.4787 176.662 50.2547 175.922 49.4641C175.208 48.6736 174.188 48.2783 172.862 48.2783C171.919 48.2783 171.064 48.4823 170.299 48.8903C169.56 49.2729 168.973 49.8721 168.54 50.6882C168.132 51.5042 167.928 52.5498 167.928 53.8249V64H161.96V43.4203H167.66V49.1199L166.589 47.3985C167.328 46.0214 168.387 44.9631 169.764 44.2236C171.141 43.484 172.709 43.1142 174.469 43.1142ZM197.394 64.306C195.456 64.306 193.709 63.8725 192.153 63.0054C190.598 62.1129 189.361 60.8761 188.443 59.295C187.55 57.7139 187.104 55.8523 187.104 53.7101C187.104 51.5425 187.55 49.6681 188.443 48.087C189.361 46.5059 190.598 45.2819 192.153 44.4148C193.709 43.5478 195.456 43.1142 197.394 43.1142C199.128 43.1142 200.645 43.4968 201.946 44.2618C203.247 45.0269 204.254 46.1872 204.968 47.7428C205.682 49.2984 206.039 51.2875 206.039 53.7101C206.039 56.1073 205.695 58.0964 205.006 59.6775C204.318 61.2331 203.323 62.3934 202.022 63.1584C200.747 63.9235 199.205 64.306 197.394 64.306ZM198.427 59.4097C199.396 59.4097 200.276 59.1802 201.066 58.7212C201.857 58.2622 202.481 57.6119 202.94 56.7703C203.425 55.9033 203.667 54.8832 203.667 53.7101C203.667 52.5116 203.425 51.4915 202.94 50.6499C202.481 49.8084 201.857 49.1581 201.066 48.6991C200.276 48.2401 199.396 48.0105 198.427 48.0105C197.432 48.0105 196.54 48.2401 195.749 48.6991C194.959 49.1581 194.321 49.8084 193.836 50.6499C193.377 51.4915 193.148 52.5116 193.148 53.7101C193.148 54.8832 193.377 55.9033 193.836 56.7703C194.321 57.6119 194.959 58.2622 195.749 58.7212C196.54 59.1802 197.432 59.4097 198.427 59.4097ZM203.82 64V59.7922L203.935 53.6719L203.553 47.5898V35.6168H209.52V64H203.82ZM221.89 64L213.13 37.2234H219.557L227.169 60.9398H223.956L231.912 37.2234H237.65L245.3 60.9398H242.202L250.005 37.2234H255.935L247.175 64H240.519L233.748 43.1907H235.508L228.546 64H221.89ZM270.065 64V59.9835L269.682 59.1037V51.9123C269.682 50.6372 269.287 49.6426 268.497 48.9286C267.732 48.2145 266.546 47.8575 264.939 47.8575C263.843 47.8575 262.759 48.036 261.688 48.3931C260.642 48.7246 259.75 49.1836 259.01 49.7701L256.868 45.6006C257.99 44.8101 259.342 44.1981 260.923 43.7645C262.504 43.331 264.11 43.1142 265.742 43.1142C268.879 43.1142 271.314 43.8538 273.049 45.3329C274.783 46.812 275.65 49.1199 275.65 52.2565V64H270.065ZM263.792 64.306C262.185 64.306 260.808 64.0383 259.66 63.5027C258.513 62.9417 257.633 62.1894 257.021 61.2458C256.409 60.3023 256.103 59.244 256.103 58.0709C256.103 56.8468 256.396 55.7758 256.983 54.8577C257.595 53.9396 258.551 53.2256 259.852 52.7156C261.152 52.18 262.848 51.9123 264.939 51.9123H270.409V55.3932H265.589C264.187 55.3932 263.218 55.6227 262.682 56.0818C262.172 56.5408 261.917 57.1146 261.917 57.8031C261.917 58.5682 262.21 59.1802 262.797 59.6392C263.409 60.0728 264.238 60.2895 265.283 60.2895C266.278 60.2895 267.17 60.06 267.961 59.601C268.752 59.1165 269.325 58.4152 269.682 57.4971L270.6 60.2513C270.167 61.5774 269.376 62.5847 268.229 63.2732C267.081 63.9617 265.602 64.306 263.792 64.306ZM286.262 64L277.617 43.4203H283.775L290.967 61.1311H287.907L295.366 43.4203H301.104L292.42 64H286.262ZM313.192 64.306C310.846 64.306 308.78 63.847 306.995 62.9289C305.235 62.0109 303.871 60.7613 302.902 59.1802C301.933 57.5736 301.448 55.7503 301.448 53.7101C301.448 51.6445 301.92 49.8211 302.864 48.24C303.833 46.6335 305.146 45.3839 306.804 44.4913C308.461 43.5733 310.336 43.1142 312.427 43.1142C314.441 43.1142 316.252 43.5478 317.858 44.4148C319.491 45.2564 320.778 46.4804 321.722 48.087C322.666 49.6681 323.137 51.568 323.137 53.7866C323.137 54.0161 323.125 54.2839 323.099 54.5899C323.074 54.8704 323.048 55.1382 323.023 55.3932H306.306V51.9123H319.886L317.591 52.9451C317.591 51.874 317.374 50.9432 316.94 50.1527C316.507 49.3621 315.908 48.7501 315.143 48.3166C314.378 47.8575 313.485 47.628 312.465 47.628C311.445 47.628 310.54 47.8575 309.749 48.3166C308.984 48.7501 308.385 49.3749 307.951 50.1909C307.518 50.9815 307.301 51.925 307.301 53.0216V53.9396C307.301 55.0617 307.543 56.0563 308.028 56.9233C308.538 57.7649 309.239 58.4152 310.132 58.8742C311.05 59.3077 312.121 59.5245 313.345 59.5245C314.441 59.5245 315.398 59.3587 316.214 59.0272C317.055 58.6957 317.82 58.1984 318.509 57.5354L321.684 60.9781C320.74 62.0491 319.554 62.8779 318.126 63.4645C316.698 64.0255 315.053 64.306 313.192 64.306Z" fill="#4BFFB3"/>
<defs>
<linearGradient id="paint0_linear_309_73" x1="59.4778" y1="27.1247" x2="59.4778" y2="72.9586" gradientUnits="userSpaceOnUse">
<stop stop-color="#4B7DFF"/>
<stop offset="1" stop-color="#4BFFB3"/>
</linearGradient>
</defs>
</svg>
